<svg width="41" height="86" viewBox="0 0 41 86" fill="none" xmlns="http://www.w3.org/2000/svg">
<path d="M6.83864 72.7115L9.43804 73.1767C12.2 73.669 14.0377 76.3079 13.5446 79.0691L13.0678 81.7358C12.5747 84.497 9.93578 86.3355 7.17537 85.8424L4.57519 85.3772C1.81401 84.8841 -0.0244609 82.2452 0.468636 79.484L0.945477 76.818C1.43857 74.0561 4.07745 72.2176 6.83864 72.7115ZM24.1334 0.957771C30.8881 2.16458 35.566 5.50092 38.1677 10.9637C40.2392 15.2793 40.8151 20.0136 39.8939 25.1683C38.3527 33.7901 32.9828 41.2918 23.7843 47.6727C20.5765 49.8974 18.563 52.7941 17.741 56.3619C17.4375 57.5455 17.1542 58.8707 16.8926 60.3376C16.3987 63.0988 13.7606 64.9373 10.9994 64.4434L8.39921 63.9789C5.63802 63.4851 3.79955 60.847 4.29265 58.0858V58.085C5.69918 50.2187 8.67634 44.7219 13.2257 41.5899C18.1419 38.2032 21.7662 34.4721 24.1009 30.3942C25.4424 28.02 26.3636 25.433 26.8644 22.6331C27.38 19.7442 27.1408 17.3631 26.146 15.4875C25.0639 13.3231 23.1372 12.1759 20.3636 12.0466C17.7742 11.9058 15.6377 13.3355 13.9556 16.3367C13.8705 16.4814 13.7877 16.63 13.7064 16.7818C12.5143 18.9995 9.86534 19.9981 7.50126 19.1327L5.18363 18.2843C2.31485 17.2346 1.00663 13.899 2.40851 11.1851C3.80033 8.48736 5.63725 6.19916 7.91773 4.31889C10.3894 2.28535 13.5438 1.05918 17.3795 0.644264C19.3921 0.40894 21.6439 0.511894 24.1334 0.957771Z" fill="#AEDBED"/>
</svg>
